<?xml version="1.0" encoding="UTF-8"?>
<svg width="45px" height="36px" viewBox="0 0 45 36" version="1.1" xmlns="http://www.w3.org/2000/svg" xmlns:xlink="http://www.w3.org/1999/xlink">
    <!-- Generator: Sketch 52.6 (67491) - http://www.bohemiancoding.com/sketch -->
    <title>dribbble</title>
    <desc>Created with Sketch.</desc>
    <g id="dribbble" stroke="none" stroke-width="1" fill="none" fill-rule="evenodd">
        <g id="dribbble-logo" transform="translate(8.000000, 4.000000)" fill="#5FE5FF" fill-rule="nonzero">
            <path d="M14.4994269,0 C6.49113148,0.000606811635 0,6.49214284 0,14.5006405 C0,22.5077223 6.49113148,29 14.4994269,29 C22.5077223,29 28.9991235,22.5077223 29,14.5006405 C28.9991235,6.49214284 22.5077223,0.000606811635 14.4994269,0 Z M23.383756,7.51812646 C24.7985037,9.31462602 25.6843138,11.5391301 25.7960346,13.9683993 C24.1591265,13.6209659 22.6124985,13.4518677 21.1706466,13.4518677 L21.1706466,13.4515306 L21.1599937,13.4515306 C19.999163,13.4515306 18.9097339,13.5569136 17.8829412,13.7390245 C17.6334067,13.1274258 17.3804337,12.5399647 17.1255728,11.9773155 C19.4123087,10.9743233 21.6072139,9.54615837 23.383756,7.51812646 Z M14.4994269,3.18778379 C17.1677799,3.18778379 19.6156581,4.12065554 21.5536796,5.67368879 C20.0706319,7.44921963 18.113125,8.73512091 15.9984539,9.64311339 C14.5125745,6.76986029 13.0767907,4.71438702 12.0953066,3.45774754 C12.8722278,3.28534562 13.6741631,3.18778379 14.4994269,3.18778379 Z M9.50273763,4.36702107 C10.2879519,5.29449894 11.860066,7.33453223 13.5391812,10.5196191 C10.1242476,11.5361634 6.68551348,11.7749775 4.60489123,11.7743707 C4.54555853,11.7743707 4.48690008,11.7743707 4.42932039,11.7737639 L4.42743254,11.7737639 C4.07703253,11.7737639 3.77571684,11.7682352 3.52415971,11.7605489 C4.3358714,8.51248846 6.56104967,5.82249248 9.50273763,4.36702107 Z M3.18683986,14.5006405 C3.18683986,14.4474434 3.18872772,14.3933697 3.19189662,14.3376779 C3.51492268,14.3496118 3.92917276,14.3598602 4.42776965,14.3598602 L4.43060144,14.3598602 C6.70459433,14.3450271 10.6749629,14.1550276 14.6986634,12.8847011 C14.9179921,13.3642846 15.1350958,13.8636232 15.3497048,14.3820426 C12.6626755,15.2807306 10.5463862,16.7124689 8.98108189,18.138274 C7.47416633,19.5108145 6.45607126,20.8702748 5.86119358,21.7777953 C4.19657442,19.8069386 3.18771637,17.2741742 3.18683986,14.5006405 Z M14.4994269,25.8136995 C11.9819003,25.8136995 9.66152001,24.9810865 7.77912289,23.5840039 C8.17921403,22.9250739 9.03704341,21.6600739 10.4030438,20.3529342 C11.808487,19.0061495 13.7485986,17.6197198 16.2817001,16.7946582 C17.1426984,19.2082178 17.9217771,21.9672554 18.5152389,25.0729848 C17.2650046,25.5490622 15.9141071,25.8136995 14.4994269,25.8136995 Z M20.9020313,23.8048833 C20.3280549,20.9960871 19.6064885,18.4633228 18.8141947,16.2030169 C19.5489088,16.0976339 20.3201664,16.0381664 21.1342379,16.0381664 L21.1634997,16.0381664 L21.1653876,16.0381664 L21.1672754,16.0381664 C22.5165548,16.0381664 23.9992653,16.2058486 25.6072487,16.5712167 C25.0506002,19.5624609 23.3180181,22.138646 20.9020313,23.8048833 Z" id="Dribbble"></path>
        </g>
    </g>
</svg>