<?xml version="1.0" encoding="UTF-8"?>
<svg width="67px" height="25px" viewBox="0 0 67 25" version="1.1" xmlns="http://www.w3.org/2000/svg" xmlns:xlink="http://www.w3.org/1999/xlink">
    <!-- Generator: Sketch 52.6 (67491) - http://www.bohemiancoding.com/sketch -->
    <title>right-drawn-arrow</title>
    <desc>Created with Sketch.</desc>
    <g id="Page-1" stroke="none" stroke-width="1" fill="none" fill-rule="evenodd">
        <g id="fleche" transform="translate(-7.000000, -17.000000)" fill="#C38AEF" fill-rule="nonzero" stroke="#C487F2" stroke-width="0.4">
            <g id="right-drawn-arrow" transform="translate(39.500000, 32.000000) rotate(-210.000000) translate(-39.500000, -32.000000) translate(14.000000, 7.000000)">
                <path d="M50.0852689,44.8294786 C49.1249342,41.8754327 47.6474962,39.0688537 46.3915532,36.2623954 C46.2438094,35.8931246 45.6528342,35.8931246 45.4312185,36.1146871 C44.1755169,37.4440621 42.7719508,38.7734371 41.9592392,40.3982287 L41.8853673,40.3982287 C32.8729955,41.0629162 24.1561113,33.3819623 17.9508717,27.7691663 C10.7852974,21.3438539 4.2845702,13.5153123 1.6990537,4.13583329 C1.5513099,2.95416663 1.4035661,1.69864581 1.4035661,0.443124995 C1.4035661,-0.147708332 0.5909752,-0.147708332 0.5171033,0.443124995 C0.5171033,0.664687492 0.5171033,0.88624999 0.5171033,1.10781249 C0.2216157,1.10781249 0,1.32937498 0,1.69864581 C0.0738719,2.51104164 0.2954876,3.32343746 0.4432314,4.13583329 C1.0342066,24.1503122 20.9796196,43.4262495 40.4818012,44.6817703 C39.8169541,45.863437 39.2260996,47.1188371 38.4873806,48.3006244 C38.1179004,48.8174829 38.7089963,49.3344621 39.2260996,49.2606079 C42.9196946,48.7437494 46.2439301,46.9711288 49.6420375,45.6418745 C49.9374044,45.5680203 50.232892,45.2726036 50.0852689,44.8294786 Z M40.1863136,47.7836453 C40.6296657,46.8235411 40.9250326,45.863437 41.4421359,44.9033328 C41.5900004,44.5339413 41.368264,44.2386453 41.1466483,44.1647912 C41.1466483,43.9432287 40.9989045,43.7953996 40.7772888,43.7216662 C23.1219047,40.7674995 8.7907561,28.7292705 3.4719793,12.4073792 C6.9439586,18.8326916 12.2627354,24.4456082 17.5076403,29.1722748 C21.3489791,32.6435413 25.4119336,35.7452956 29.8442476,38.3301914 C33.3162269,40.3242539 37.674669,42.170608 41.6637516,40.9152079 C41.4421359,41.5060412 42.3285987,41.8014578 42.6240863,41.3583329 C43.584421,40.102812 44.5447557,38.9211454 45.5789623,37.8133329 C46.6130482,40.102812 47.7212474,42.3921705 48.5337176,44.7555038 C45.800578,45.7895828 43.0673177,47.1189578 40.1863136,47.7836453 Z" id="Shape"></path>
            </g>
        </g>
    </g>
</svg>