<?xml version="1.0" encoding="UTF-8"?>
<svg width="45px" height="36px" viewBox="0 0 45 36" version="1.1" xmlns="http://www.w3.org/2000/svg" xmlns:xlink="http://www.w3.org/1999/xlink">
    <!-- Generator: Sketch 52.6 (67491) - http://www.bohemiancoding.com/sketch -->
    <title>instagram</title>
    <desc>Created with Sketch.</desc>
    <g id="instagram" stroke="none" stroke-width="1" fill="none" fill-rule="evenodd">
        <g id="Group-9" transform="translate(9.000000, 5.000000)" fill="#5FE5FF">
            <path d="M21.75,7 C21.33675,7 21,6.66325 21,6.25 L21,4.75 C21,4.33675 21.33675,4 21.75,4 L23.25,4 C23.66325,4 24,4.33675 24,4.75 L24,6.25 C24,6.66325 23.66325,7 23.25,7 L21.75,7 Z" id="Fill-1"></path>
            <path d="M13.4990821,10 C12.8326777,10 12.2176764,10.195541 11.6880409,10.5168525 C11.8532651,10.4654426 12.0249148,10.4314754 12.2057435,10.4314754 C13.186074,10.4314754 13.9800682,11.2255738 13.9800682,12.2069508 C13.9800682,13.1855738 13.186074,13.9815082 12.2057435,13.9815082 C11.2254131,13.9815082 10.4314188,13.1864918 10.4314188,12.2069508 C10.4314188,12.0242623 10.4672174,11.8525902 10.5177026,11.6882623 C10.1945974,12.2179672 10,12.8330492 10,13.499541 C10,15.4338361 11.5650407,17 13.5,17 C15.4322056,17 17,15.4347541 17,13.499541 C17,11.5643279 15.4312877,10 13.4990821,10" id="Fill-3"></path>
            <path d="M14,6 C9.589,6 6,9.3646875 6,13.5 C6,17.6353125 9.589,21 14,21 C18.411,21 22,17.6353125 22,13.5 C22,9.3646875 18.411,6 14,6 M14,8 C17.313,8 20,10.4621667 20,13.5 C20,16.5378333 17.312,19 14,19 C10.687,19 8,16.5378333 8,13.5 C8,10.4621667 10.687,8 14,8" id="Fill-5"></path>
            <path d="M25.8461538,9.34615385 L18.8063077,9.34615385 C19.8326154,10.4500385 20.4615385,11.9018077 20.4615385,13.5 C20.4615385,16.9414615 17.5667692,19.7307692 14,19.7307692 C10.4321538,19.7307692 7.53846154,16.9414615 7.53846154,13.5 C7.53846154,11.9018077 8.16738462,10.449 9.19369231,9.34615385 L2.15384615,9.34615385 L2.15384615,5.0625 C2.15384615,3.41653846 3.54307692,2.07692308 5.25,2.07692308 L22.75,2.07692308 C24.458,2.07692308 25.8461538,3.41653846 25.8461538,5.0625 L25.8461538,9.34615385 Z M22.75,0 L5.25,0 C2.34984615,0 0,2.26592308 0,5.0625 L0,21.9375 C0,24.7340769 2.34984615,27 5.25,27 L22.75,27 C25.6501538,27 28,24.7340769 28,21.9375 L28,5.0625 C28,2.26592308 25.6501538,0 22.75,0 Z" id="Fill-7"></path>
        </g>
    </g>
</svg>