<?xml version="1.0" encoding="UTF-8"?>
<svg width="49px" height="49px" viewBox="0 0 49 49" version="1.1" xmlns="http://www.w3.org/2000/svg" xmlns:xlink="http://www.w3.org/1999/xlink">
    <!-- Generator: Sketch 52.6 (67491) - http://www.bohemiancoding.com/sketch -->
    <title>Combined Shape</title>
    <desc>Created with Sketch.</desc>
    <g id="Page-1" stroke="none" stroke-width="1" fill="none" fill-rule="evenodd">
        <g id="like-cliqué" transform="translate(-6.000000, -10.000000)" fill="#C38AEF" fill-rule="nonzero">
            <path d="M30.5,59 C16.9690236,59 6,48.0309764 6,34.5 C6,20.9690236 16.9690236,10 30.5,10 C44.0309764,10 55,20.9690236 55,34.5 C55,48.0309764 44.0309764,59 30.5,59 Z M41.5369596,33.5827468 C42.8373631,33.6413417 43.9405376,32.6297096 43.9974813,31.3229923 C44.054425,30.016275 43.1400573,28.8415205 41.8386482,28.7850359 L33.1990419,27.7136916 C33.1990419,27.7136916 34.9994941,24.7395007 34.9994941,20.3328368 C34.9994941,17.3952677 32.8744753,17 31.6247304,17 C30.6416028,16.9996276 30.376871,18.8808735 30.376871,18.8808735 L30.3748598,18.8808735 C30.1522388,20.08716 29.8623663,21.1406279 28.8551036,23.0802205 C27.7275426,25.2541929 26.1919478,25.0502278 24.3991635,26.9865927 C24.0827676,27.3276104 23.6576381,27.8904696 23.2433192,28.5830571 C23.2095049,28.619679 23.1779533,28.6709496 23.1474074,28.743076 C23.1104505,28.8289822 23.0662029,28.8885703 23.0272347,28.9680211 C22.9586006,29.0925353 22.8910978,29.2170496 22.8247263,29.347771 C21.7151409,30.4435713 19.9864654,30.3315953 19.2503453,30.3315953 C17.7738312,30.3315953 17.0005028,31.1788636 17.0005028,32.5534865 L17,42.7117674 C17,44.2539819 17.6389512,44.7741363 19.250471,44.7741363 L21.5003135,44.7741363 C22.6330284,44.7741363 23.5199927,45.4154532 24.8752029,45.8850819 C26.7314675,46.5201917 29.5037341,46.9968965 34.2792127,46.9968965 C35.1143872,46.9968965 37.7047606,47 37.7047606,47 C38.4978244,47 39.1348901,46.6422231 39.5945881,46.2102094 C39.7695675,46.0459697 39.952089,45.8073691 40.030151,45.3418371 C40.042847,45.2697106 40.056423,44.967301 40.0544117,44.9264584 C40.1143724,43.5946644 39.2991847,43.1124974 38.8373498,42.9606719 C38.8499201,42.956451 38.8416237,42.94503 38.8667644,42.9460231 L40.3328452,43.0108252 C41.6342542,43.0694201 42.918819,42.1435701 42.918819,40.5690787 C42.918819,39.2634787 41.8471961,38.3427185 40.5500609,38.2800268 L41.3274118,38.3156555 C42.6286951,38.3721401 43.7287271,37.360508 43.7889391,36.0537907 C43.8456314,34.7471975 42.8373631,33.6414659 41.5369596,33.5827468 Z" id="Combined-Shape"></path>
        </g>
    </g>
</svg>