<?xml version="1.0" encoding="UTF-8"?>
<svg width="45px" height="36px" viewBox="0 0 45 36" version="1.1" xmlns="http://www.w3.org/2000/svg" xmlns:xlink="http://www.w3.org/1999/xlink">
    <!-- Generator: Sketch 52.6 (67491) - http://www.bohemiancoding.com/sketch -->
    <title>linkedin</title>
    <desc>Created with Sketch.</desc>
    <g id="linkedin" stroke="none" stroke-width="1" fill="none" fill-rule="evenodd">
        <g id="linkedin-logo" transform="translate(9.000000, 5.000000)" fill="#5FE5FF" fill-rule="nonzero">
            <path d="M25.9324503,0 L2.06885167,0 C0.926165915,0 0,0.833766548 0,1.86284229 L0,24.1363719 C0,25.1655081 0.92649141,26 2.06885167,26 L25.9324503,26 C27.0748757,26 28,25.164964 28,24.1363719 L28,1.86284229 C28,0.83406879 27.0748757,0 25.9324503,0 Z M8.48880178,21.7637672 L4.25820191,21.7637672 L4.25820191,10.0250861 L8.48880178,10.0250861 L8.48880178,21.7637672 Z M6.37392499,8.42138669 L6.34547665,8.42138669 C4.92677041,8.42138669 4.00711441,7.52046183 4.00711441,6.39255274 C4.00711441,5.24191501 4.95378656,4.36541135 6.40061565,4.36541135 C7.84757494,4.36541135 8.73761081,5.24167322 8.76573366,6.39255274 C8.76573366,7.52070362 7.84790044,8.42138669 6.37392499,8.42138669 Z M23.7388686,21.7637672 L19.5096358,21.7637672 L19.5096358,15.4831651 C19.5096358,13.9050354 18.8968573,12.8282053 17.3674174,12.8282053 C16.19739,12.8282053 15.5028469,13.5546757 15.1978573,14.25606 C15.0848451,14.5065587 15.0568525,14.8569183 15.0568525,15.2067944 L15.0568525,21.7635254 L10.8284009,21.7635254 C10.8284009,21.7635254 10.8837352,11.1258538 10.8284009,10.0249048 L15.0575035,10.0249048 L15.0575035,11.6891132 C15.6189187,10.8894396 16.6221621,9.74871547 18.8680184,9.74871547 C21.651659,9.74871547 23.7388686,11.4254972 23.7388686,15.0327631 L23.7388686,21.7637672 Z M15.0301618,11.7531506 C15.0417385,11.7342226 15.057904,11.7114466 15.0739653,11.6892946 L15.0739653,11.7531506 L15.0301618,11.7531506 Z" id="LinkedIn__x28_alt_x29_"></path>
        </g>
    </g>
</svg>