<?xml version="1.0" encoding="UTF-8"?>
<svg width="27px" height="30px" viewBox="0 0 27 30" version="1.1" xmlns="http://www.w3.org/2000/svg" xmlns:xlink="http://www.w3.org/1999/xlink">
    <!-- Generator: Sketch 52.6 (67491) - http://www.bohemiancoding.com/sketch -->
    <title>pouce like</title>
    <desc>Created with Sketch.</desc>
    <g id="Page-1" stroke="none" stroke-width="1" fill="none" fill-rule="evenodd">
        <g id="like" transform="translate(-10.000000, -4.000000)" fill="#070707" fill-rule="nonzero">
            <g id="pouce-like" transform="translate(10.000000, 4.000000)">
                <path d="M24.5369596,16.5827468 C25.8373631,16.6413417 26.9405376,15.6297096 26.9974813,14.3229923 C27.054425,13.016275 26.1400573,11.8415205 24.8386482,11.7850359 L16.1990419,10.7136916 C16.1990419,10.7136916 17.9994941,7.7395007 17.9994941,3.33283677 C17.9994941,0.395267712 15.8744753,0 14.6247304,0 C13.6416028,-0.000372425608 13.376871,1.88087346 13.376871,1.88087346 L13.3748598,1.88087346 C13.1522388,3.08716001 12.8623663,4.14062791 11.8551036,6.08022048 C10.7275426,8.25419289 9.19194781,8.0502278 7.39916351,9.98659268 C7.08276762,10.3276104 6.65763815,10.8904696 6.24331918,11.5830571 C6.20950492,11.619679 6.17795333,11.6709496 6.14740736,11.743076 C6.11045051,11.8289822 6.06620285,11.8885703 6.02723475,11.9680211 C5.9586006,12.0925353 5.89109778,12.2170496 5.8247263,12.347771 C4.71514089,13.4435713 2.9864654,13.3315953 2.2503453,13.3315953 C0.773831174,13.3315953 0.000502814278,14.1788636 0.000502814278,15.5534865 L0,25.7117674 C0,27.2539819 0.638951244,27.7741363 2.250471,27.7741363 L4.50031349,27.7741363 C5.63302835,27.7741363 6.51999274,28.4154532 7.87520292,28.8850819 C9.73146753,29.5201917 12.5037341,29.9968965 17.2792127,29.9968965 C18.1143872,29.9968965 20.7047606,30 20.7047606,30 C21.4978244,30 22.1348901,29.6422231 22.5945881,29.2102094 C22.7695675,29.0459697 22.952089,28.8073691 23.030151,28.3418371 C23.042847,28.2697106 23.056423,27.967301 23.0544117,27.9264584 C23.1143724,26.5946644 22.2991847,26.1124974 21.8373498,25.9606719 C21.8499201,25.956451 21.8416237,25.94503 21.8667644,25.9460231 L23.3328452,26.0108252 C24.6342542,26.0694201 25.918819,25.1435701 25.918819,23.5690787 C25.918819,22.2634787 24.8471961,21.3427185 23.5500609,21.2800268 L24.3274118,21.3156555 C25.6286951,21.3721401 26.7287271,20.360508 26.7889391,19.0537907 C26.8456314,17.7471975 25.8373631,16.6414659 24.5369596,16.5827468 Z" id="Shape"></path>
            </g>
        </g>
    </g>
</svg>