<?xml version="1.0" encoding="UTF-8"?>
<svg width="45px" height="36px" viewBox="0 0 45 36" version="1.1" xmlns="http://www.w3.org/2000/svg" xmlns:xlink="http://www.w3.org/1999/xlink">
    <!-- Generator: Sketch 52.6 (67491) - http://www.bohemiancoding.com/sketch -->
    <title>twitter</title>
    <desc>Created with Sketch.</desc>
    <defs>
        <polygon id="path-1" points="0 0 33 0 33 25 0 25"></polygon>
    </defs>
    <g id="twitter" stroke="none" stroke-width="1" fill="none" fill-rule="evenodd">
        <g id="Group-3" transform="translate(6.000000, 6.000000)">
            <mask id="mask-2" fill="white">
                <use xlink:href="#path-1"></use>
            </mask>
            <g id="Clip-2"></g>
            <path d="M33,2.95789338 C31.7854147,3.45983557 30.4821822,3.80024702 29.1128956,3.95222271 C30.5110302,3.17137345 31.5812673,1.93283701 32.0885083,0.461559506 C30.7770258,1.1846761 29.3293911,1.70975159 27.7869081,1.99439168 C26.5517248,0.765460584 24.7947954,0 22.8460667,0 C19.1074626,0 16.0761488,2.82713998 16.0761488,6.31201986 C16.0761488,6.80626771 16.1359479,7.28899921 16.2514481,7.75060901 C10.6260174,7.48709062 5.63777882,4.97345706 2.29921944,1.15389876 C1.71562535,2.0847624 1.38362971,3.16941215 1.38362971,4.32723352 C1.38362971,6.5178056 2.57966598,8.4506426 4.39434542,9.58145836 C3.28490733,9.546859 2.24146935,9.26221891 1.32798256,8.78909275 L1.32798256,8.86794711 C1.32798256,11.9258668 3.662305,14.4779721 6.75751594,15.0588189 C6.19042188,15.201139 5.59243071,15.2799933 4.97378754,15.2799933 C4.53664467,15.2799933 4.11389888,15.2396106 3.6994031,15.1626673 C4.56134079,17.6724788 7.0606635,19.4976454 10.0218791,19.5476335 C7.70610573,21.2400854 4.78614017,22.2459311 1.61463009,22.2459311 C1.06818802,22.2459311 0.529942042,22.2151537 0,22.1593824 C2.9962647,23.9537716 6.55342247,25 10.3765758,25 C22.8296746,25 29.6367445,15.3800197 29.6367445,7.03709776 L29.6140435,6.21973813 C30.9440751,5.33499021 32.0947093,4.22338515 33,2.95789338" id="Fill-1" fill="#5FE5FF" mask="url(#mask-2)"></path>
        </g>
    </g>
</svg>